<svg viewBox="0 0 120.8 111.7" xmlns="http://www.w3.org/2000/svg"><path d="M75 33.3c-.9-.9-2.4-.9-3.3 0L36.2 66c-.5.5-.8 1.1-.8 1.8v37.3c0 1.4 1.1 2.5 2.5 2.5h24.7c1.4 0 2.5-1.1 2.5-2.5V88c0-4.6 3.7-8.3 8.3-8.3s8.3 3.7 8.3 8.3v17.1c0 1.4 1.1 2.5 2.5 2.5h24.7c1.4 0 2.5-1.1 2.5-2.5V67.8c0-.7-.3-1.3-.8-1.8zm31.3 69.3H86.6V88c0-7.3-5.9-13.3-13.3-13.3C66 74.7 60 80.6 60 88v14.6H40.3V68.8l33-30.4 33 30.4z" fill="#006a99"/><g fill="#249a80"><path d="M104.2 41.1c-.9 0-1.7-.5-2-1.4-1.4-4-5.3-7.6-9.3-8.8-.9-.3-1.5-1-1.5-1.9s.5-1.7 1.4-2c4-1.4 7.6-5.3 8.8-9.3.3-.9 1-1.5 1.9-1.5.9 0 1.7.5 2 1.4 1.4 4 5.3 7.6 9.3 8.8.9.3 1.5 1 1.5 1.9s-.5 1.7-1.4 2c-4 1.4-7.6 5.3-8.8 9.3-.2.9-1 1.5-1.9 1.5zm-6-12.3c2.3 1.4 4.3 3.3 5.8 5.5 1.4-2.3 3.3-4.3 5.5-5.8-2.3-1.4-4.3-3.3-5.8-5.5-1.4 2.2-3.3 4.3-5.5 5.8zM30.3 40.7c-.9 0-1.7-.5-2-1.4-2.4-6.6-8.6-12.4-15.3-14.4-.9-.3-1.5-1-1.5-1.9s.5-1.7 1.4-2c6.6-2.4 12.4-8.6 14.4-15.3.3-.9 1-1.5 1.9-1.5.9 0 1.7.5 2 1.4C33.6 12.2 39.7 18 46.5 20c.9.3 1.5 1 1.5 1.9s-.5 1.7-1.4 2c-6.6 2.4-12.4 8.5-14.4 15.3-.2.9-1 1.5-1.9 1.5zM18.6 22.8c4.6 2.4 8.7 6.2 11.4 10.7 2.4-4.6 6.2-8.7 10.7-11.4-4.6-2.4-8.7-6.2-11.4-10.7-2.4 4.6-6.2 8.7-10.7 11.4zM16.5 92.4c-.9 0-1.7-.5-2-1.4-1.3-3.6-4.8-6.9-8.5-8-.9-.3-1.5-1-1.5-1.9s.5-1.7 1.4-2c3.6-1.3 6.9-4.8 8-8.5.3-.9 1-1.5 1.9-1.5.9 0 1.7.5 2 1.4 1.3 3.6 4.8 6.9 8.5 8 .9.3 1.5 1 1.5 1.9s-.5 1.7-1.4 2c-3.6 1.3-6.9 4.8-8 8.5-.2.8-1 1.4-1.9 1.5zm-5.3-11.6c2 1.2 3.7 2.9 5.1 4.8 1.2-2 2.9-3.7 4.8-5.1-2-1.2-3.7-2.9-5.1-4.8-1.2 2-2.9 3.8-4.8 5.1z"/></g></svg>