<svg id="Layer_1" data-name="Layer 1" xmlns="http://www.w3.org/2000/svg" viewBox="0 0 995.24 1086.8"><defs><style>.cls-1,.cls-3{font-size:104.95px;font-family:Gilroy-Bold,Gilroy;fill:#0068a9;font-weight:700}.cls-3{font-family:GothamRounded-Bold,&quot;Gotham Rounded&quot;;font-size:52.33px}</style></defs><circle cx="497.62" cy="589.18" r="486.85" style="fill:#fff;stroke-width:21.55px;stroke:#0098d8;stroke-miterlimit:10"/><path d="M497.62 338.57c2.06 0 3.82 1.5 4.15 3.54.03.23 3.78 23.37 8.24 32.5 3.49 7.17 14.96 11.92 29.21 12.12 2.3.03 4.15 1.9 4.15 4.2s-1.85 4.17-4.15 4.2c-14.25.19-25.71 4.94-29.21 12.12-4.45 9.12-8.21 32.28-8.24 32.51-.33 2.04-2.09 3.54-4.15 3.54s-3.82-1.5-4.14-3.54c-.04-.23-3.79-23.38-8.25-32.51-3.5-7.17-14.97-11.92-29.22-12.12-2.3-.03-4.15-1.9-4.15-4.2s1.85-4.17 4.15-4.2c14.26-.19 25.73-4.94 29.22-12.12 4.45-9.12 8.21-32.27 8.25-32.5a4.19 4.19 0 0 1 4.14-3.54m129.53 35.75c1.03 0 1.91.75 2.08 1.77.02.11 1.89 11.69 4.12 16.25 1.75 3.59 7.48 5.96 14.61 6.06a2.1 2.1 0 0 1 0 4.2c-7.12.1-12.86 2.47-14.61 6.06-2.23 4.56-4.1 16.14-4.12 16.25-.16 1.02-1.04 1.77-2.08 1.77s-1.91-.75-2.07-1.77c-.02-.11-1.89-11.69-4.12-16.25-1.75-3.59-7.49-5.96-14.61-6.06a2.1 2.1 0 0 1 0-4.2c7.13-.1 12.86-2.47 14.61-6.06 2.23-4.56 4.1-16.14 4.12-16.25a2.096 2.096 0 0 1 2.07-1.77m-254.16 0c1.03 0 1.91.75 2.08 1.77.02.11 1.89 11.69 4.12 16.25 1.75 3.59 7.48 5.96 14.61 6.06a2.1 2.1 0 0 1 0 4.2c-7.12.1-12.86 2.47-14.61 6.06-2.23 4.56-4.1 16.14-4.12 16.25-.16 1.02-1.04 1.77-2.08 1.77s-1.91-.75-2.07-1.77c-.02-.11-1.89-11.69-4.12-16.25-1.75-3.59-7.49-5.96-14.61-6.06a2.1 2.1 0 0 1 0-4.2c7.13-.1 12.86-2.47 14.61-6.06 2.23-4.56 4.1-16.14 4.12-16.25a2.096 2.096 0 0 1 2.07-1.77m124.63 357.19c2.06 0 3.82 1.5 4.15 3.54.03.23 3.78 23.37 8.24 32.5 3.49 7.17 14.96 11.92 29.21 12.12 2.3.03 4.15 1.9 4.15 4.2s-1.85 4.17-4.15 4.2c-14.25.19-25.71 4.94-29.21 12.12-4.45 9.12-8.21 32.28-8.24 32.51-.33 2.04-2.09 3.54-4.15 3.54s-3.82-1.5-4.14-3.54c-.04-.23-3.79-23.38-8.25-32.51-3.5-7.17-14.97-11.92-29.22-12.12-2.3-.03-4.15-1.9-4.15-4.2s1.85-4.17 4.15-4.2c14.26-.19 25.73-4.94 29.22-12.12 4.45-9.12 8.21-32.27 8.25-32.5a4.19 4.19 0 0 1 4.14-3.54m129.53 13.65c1.03 0 1.91.75 2.08 1.77.02.11 1.89 11.69 4.12 16.25 1.75 3.59 7.48 5.96 14.61 6.06a2.1 2.1 0 0 1 0 4.2c-7.12.1-12.86 2.47-14.61 6.06-2.23 4.56-4.1 16.14-4.12 16.25-.16 1.02-1.04 1.77-2.08 1.77s-1.91-.75-2.07-1.77c-.02-.11-1.89-11.69-4.12-16.25-1.75-3.59-7.49-5.96-14.61-6.06a2.1 2.1 0 0 1 0-4.2c7.13-.1 12.86-2.47 14.61-6.06 2.23-4.56 4.1-16.14 4.12-16.25a2.096 2.096 0 0 1 2.07-1.77m-254.16 0c1.03 0 1.91.75 2.08 1.77.02.11 1.89 11.69 4.12 16.25 1.75 3.59 7.48 5.96 14.61 6.06a2.1 2.1 0 0 1 0 4.2c-7.12.1-12.86 2.47-14.61 6.06-2.23 4.56-4.1 16.14-4.12 16.25-.16 1.02-1.04 1.77-2.08 1.77s-1.91-.75-2.07-1.77c-.02-.11-1.89-11.69-4.12-16.25-1.75-3.59-7.49-5.96-14.61-6.06a2.1 2.1 0 0 1 0-4.2c7.13-.1 12.86-2.47 14.61-6.06 2.23-4.56 4.1-16.14 4.12-16.25a2.096 2.096 0 0 1 2.07-1.77" style="stroke:#0098d8;stroke-miterlimit:10;fill:#0098d8"/><text class="cls-1" transform="rotate(-37.61 638.861 -188.034)"><tspan x="0" y="0">P</tspan></text><text class="cls-1" transform="rotate(-28.31 770.486 -426.04)"><tspan x="0" y="0">R</tspan></text><text class="cls-1" transform="rotate(-17.64 1090.666 -975.748)"><tspan x="0" y="0">O</tspan></text><text class="cls-1" transform="rotate(-9.67 1760.383 -2377.27)"><tspan x="0" y="0"> </tspan></text><text class="cls-1" transform="rotate(-2.19 6923.818 -11586.323)"><tspan x="0" y="0">C</tspan></text><text class="cls-1" transform="rotate(7 -1816.834 4380.777)"><tspan x="0" y="0">L</tspan></text><text class="cls-1" transform="rotate(15.29 -683.547 2258)"><tspan x="0" y="0">E</tspan></text><text class="cls-1" transform="rotate(25.77 -288.423 1515.032)"><tspan x="0" y="0">A</tspan></text><text class="cls-1" transform="rotate(36.77 -115.39 1199.653)"><tspan x="0" y="0">N</tspan></text><path d="M772.36 699.87C728.52 808.58 622.03 885.3 497.62 885.3s-232.58-77.94-275.77-188.01m.03-216.29c43.2-110.04 150.38-187.95 275.74-187.95s227.9 74.58 272.85 180.86M60.91 481h877.75M60.91 697.29h877.75" style="stroke:#0098d8;stroke-miterlimit:10;fill:none;stroke-linecap:round;stroke-width:13.11px"/><text class="cls-3" transform="rotate(15.13 -3472.488 1907.628)"><tspan x="0" y="0">E</tspan></text><text class="cls-3" transform="rotate(9.8 -5521.599 2907.838)"><tspan x="0" y="0">S</tspan></text><text class="cls-3" transform="rotate(4.73 -11739.17 5935.454)"><tspan x="0" y="0">T</tspan></text><text class="cls-3" transform="rotate(1.81 -31114.473 15679.308)"><tspan x="0" y="0">.</tspan></text><text class="cls-3" transform="rotate(-.54 105404.076 -52131.305)"><tspan x="0" y="0"> </tspan></text><text class="cls-3" transform="rotate(-3.46 16661.308 -8003.078)"><tspan x="0" y="0">1</tspan></text><text class="cls-3" transform="rotate(-7.86 7471.517 -3420.228)"><tspan x="0" y="0">9</tspan></text><text class="cls-3" transform="rotate(-13.27 4518.573 -1980.614)"><tspan x="0" y="0">9</tspan></text><text class="cls-3" transform="rotate(-18.43 3312.59 -1396.22)"><tspan x="0" y="0">7</tspan></text><text transform="translate(181.33 641.23)" style="font-family:Gilroy-Bold,Gilroy;fill:#0068a9;font-weight:700;font-size:151.77px"><tspan x="0" y="0">P</tspan><tspan x="89.54" y="0" style="letter-spacing:0">R</tspan><tspan x="181.52" y="0">OM</tspan><tspan x="425.41" y="0" style="letter-spacing:-.01em">I</tspan><tspan x="464.42" y="0" style="letter-spacing:0">S</tspan><tspan x="552.14" y="0">E</tspan></text></svg>